<svg id="Layer_1" height="512" viewBox="0 0 512 512" width="512" xmlns="http://www.w3.org/2000/svg" data-name="Layer 1"><path d="m179.923 71.19a7 7 0 0 0 -14 0v37.95h14z"/><path d="m346.077 71.19a7 7 0 0 0 -14 0v37.95h14z"/><path d="m330.125 390.373h5.441v18.946h-5.441z" transform="matrix(.707 -.707 .707 .707 -185.244 352.455)"/><path d="m204.885 307.707 91.33 91.331a3 3 0 0 0 4.243 0l31.579-31.58a3 3 0 0 0 0-4.242l-9.847-9.846-11.037 11.037a7 7 0 1 1 -9.9-9.9l11.037-11.037-6.825-6.825-5.365 5.355a7 7 0 0 1 -9.9-9.9l5.36-5.36-6.825-6.825-11.035 11.04a7 7 0 1 1 -9.9-9.9l11.037-11.037-6.825-6.825-5.361 5.36a7 7 0 0 1 -9.9-9.9l5.36-5.36-21.406-21.407a3 3 0 0 0 -4.242 0l-31.58 31.58a3 3 0 0 0 .002 4.241z"/><path d="m216.135 272.414-5.261-5.261-5.351 5.351-.009.01-.01.009-5.352 5.352 5.262 5.261z"/><path d="m396 109.14h-49.923v23.95a7 7 0 1 1 -14 0v-23.95h-152.154v23.95a7 7 0 1 1 -14 0v-23.95h-49.923a33.038 33.038 0 0 0 -33 33v32.005h346v-32.005a33.038 33.038 0 0 0 -33-33z"/><path d="m83 414.81a33.038 33.038 0 0 0 33 33h280a33.038 33.038 0 0 0 33-33v-226.665h-346zm68.05-196.76a7 7 0 0 1 9.9 0l39.613 39.614 5.361-5.361a7 7 0 0 1 9.9 0l10.211 10.211.529-.529a17 17 0 0 1 24.043 0l91.331 91.33a17 17 0 0 1 0 24.042l-3.968 3.967 13.413 13.414a7 7 0 0 1 9.567 10.2l-23.012 23.013a7 7 0 0 1 -10.2-9.568l-13.414-13.413-3.967 3.967a17.021 17.021 0 0 1 -24.042 0l-91.331-91.331a17 17 0 0 1 0-24.042l.53-.53-10.21-10.21a7 7 0 0 1 0-9.9l5.36-5.36-39.614-39.613a7 7 0 0 1 0-9.901z"/></svg>